<svg width="16" height="16" viewBox="0 0 16 16" fill="none" xmlns="http://www.w3.org/2000/svg">
<path d="M8 7.62939e-06C3.584 7.62939e-06 0 3.58401 0 8.00001C0 12.416 3.584 16 8 16C12.416 16 16 12.416 16 8.00001C16 3.58401 12.416 7.62939e-06 8 7.62939e-06ZM8 14.4C4.464 14.4 1.6 11.536 1.6 8.00001C1.6 6.52001 2.104 5.16001 2.952 4.08001L11.92 13.048C10.84 13.896 9.48 14.4 8 14.4ZM13.048 11.92L4.08 2.95201C5.16 2.10401 6.52 1.60001 8 1.60001C11.536 1.60001 14.4 4.46401 14.4 8.00001C14.4 9.48001 13.896 10.84 13.048 11.92Z" fill="white"/>
</svg>
